# xmcd
#
# Track frame offsets:
#	150
#	10504
#	27877
#	41445
#	48455
#	58520
#	66107
#	75848
#	86884
#	98051
#	117407
#	125614
#	137312
#	152752
#
# Disc length: 2203 seconds
#
# Revision: 1
# Processed by: cddbd v1.5.2PL0 Copyright (c) Steve Scherf et al.
# Submitted via: audiograbber 1.83.01
#
DISCID=a508990e
DTITLE=Cash Nelson Jennings Kristofferson - The Highwaymen
DYEAR=2009
DGENRE=Country
TTITLE0=Only Daddy that'll walk the line (WJ)
TTITLE1=Casey's last ride (KK)
TTITLE2=Don't take your guns to town (JC)
TTITLE3=Luckenbach, Texas (WN)
TTITLE4=Yours love (WJ)
TTITLE5=Come in stranger (JC)
TTITLE6=Half a man (WN)
TTITLE7=Big Mamou (WJ)
TTITLE8=Mean eyed cat (JC)
TTITLE9=Sugar man (KK)
TTITLE10=The wall (JC)
TTITLE11=Burning memories (WJ)
TTITLE12=Spanish eyes (WN)
TTITLE13=Peace in the valley (JC)
EXTD=CD 3 of 3 Golden Stars Box
EXTT0=
EXTT1=
EXTT2=
EXTT3=
EXTT4=
EXTT5=
EXTT6=
EXTT7=
EXTT8=
EXTT9=
EXTT10=
EXTT11=
EXTT12=
EXTT13=RIP mib
PLAYORDER=
